# xmcd CD database file
#
# Track frame offsets:
#	150
#	37699
#	59997
#	90721
#	128620
#	146525
#	173000
#
# Disc length: 2794 seconds
#
# Revision: 0
# Processed by: cddbd v1.5.2PL0 Copyright (c) Steve Scherf et al.
# Submitted via: CDex 1.70beta2
#
DISCID=580ae807
DTITLE=Lee Morgan - Indeed
DYEAR=1900
DGENRE=Jazz
TTITLE0=Roccus
TTITLE1=Reggie Of Chester
TTITLE2=The Lady
TTITLE3=Little T (A.K.A. The New Message)
TTITLE4=Gaza Strip
TTITLE5=Stand By
TTITLE6=Little T - (Alternate Take, Bonus Track)
EXTD=
EXTT0=
EXTT1=
EXTT2=
EXTT3=
EXTT4=
EXTT5=
EXTT6=
PLAYORDER=
